<svg width="31" height="31" viewBox="0 0 31 31" fill="none" xmlns="http://www.w3.org/2000/svg">
<path d="M15.5001 30.6812C14.9726 30.6823 14.4513 30.568 13.9726 30.3464C13.494 30.1247 13.0696 29.801 12.7293 29.3979L11.446 27.9396C11.2281 27.6835 10.9545 27.4806 10.6461 27.3467C10.3377 27.2127 10.0027 27.1511 9.66678 27.1667L7.71262 27.3417C7.18568 27.3856 6.65548 27.3145 6.15879 27.1331C5.6621 26.9517 5.21081 26.6644 4.83622 26.2912C4.46162 25.918 4.17269 25.4678 3.98947 24.9718C3.80624 24.4758 3.7331 23.9459 3.77512 23.4188L3.83345 21.4208C3.8606 21.0751 3.8046 20.7279 3.67014 20.4082C3.53567 20.0886 3.32665 19.8057 3.06053 19.5833L1.6022 18.3146C1.19725 17.9737 0.871703 17.5485 0.648373 17.0686C0.425043 16.5887 0.309326 16.0658 0.309326 15.5365C0.309326 15.0071 0.425043 14.4842 0.648373 14.0043C0.871703 13.5245 1.19725 13.0992 1.6022 12.7583L3.06053 11.475C3.32069 11.2541 3.52594 10.9757 3.66007 10.6619C3.79421 10.3481 3.85356 10.0074 3.83345 9.66667L3.68762 7.66875C3.64364 7.14181 3.71482 6.61161 3.8962 6.11492C4.07759 5.61823 4.36485 5.16694 4.73805 4.79235C5.11125 4.41775 5.56148 4.12883 6.05749 3.9456C6.5535 3.76237 7.08343 3.68923 7.61053 3.73125L9.57928 3.83333C9.92021 3.86753 10.2644 3.82062 10.5837 3.69644C10.9031 3.57225 11.1885 3.3743 11.4168 3.11875L12.6855 1.66042C13.0256 1.2418 13.4546 0.904187 13.9415 0.672112C14.4283 0.440038 14.9608 0.319327 15.5001 0.318749V0.318749C16.0276 0.317651 16.549 0.431955 17.0276 0.653646C17.5063 0.875337 17.9306 1.19905 18.2709 1.60208V1.60208L19.5543 3.06042C19.7735 3.31485 20.0474 3.5165 20.3555 3.65033C20.6635 3.78416 20.9978 3.84672 21.3335 3.83333L23.2876 3.65833C23.8146 3.61436 24.3448 3.68553 24.8414 3.86692C25.3381 4.0483 25.7894 4.33556 26.164 4.70876C26.5386 5.08197 26.8275 5.53219 27.0108 6.0282C27.194 6.52422 27.2671 7.05415 27.2251 7.58125L27.1668 9.57917C27.1396 9.9249 27.1956 10.2721 27.3301 10.5918C27.4646 10.9114 27.6736 11.1943 27.9397 11.4167L29.398 12.6854C29.803 13.0263 30.1285 13.4515 30.3519 13.9314C30.5752 14.4113 30.6909 14.9342 30.6909 15.4635C30.6909 15.9929 30.5752 16.5158 30.3519 16.9957C30.1285 17.4755 29.803 17.9008 29.398 18.2417L27.9397 19.525C27.6795 19.7459 27.4743 20.0243 27.3402 20.3381C27.206 20.6519 27.1467 20.9926 27.1668 21.3333L27.3418 23.3021C27.3858 23.829 27.3146 24.3592 27.1332 24.8559C26.9518 25.3526 26.6646 25.8039 26.2914 26.1785C25.9181 26.5531 25.4679 26.842 24.9719 27.0252C24.4759 27.2085 23.946 27.2816 23.4189 27.2396L21.4209 27.1667C21.0753 27.1407 20.7285 27.1973 20.409 27.3317C20.0896 27.466 19.8066 27.6744 19.5835 27.9396L18.3147 29.3979C17.9751 29.8029 17.5512 30.1288 17.0727 30.353C16.5941 30.5771 16.0723 30.6942 15.5439 30.6958L15.5001 30.6812ZM9.81262 25.7083C10.3401 25.7072 10.8615 25.8215 11.3401 26.0432C11.8188 26.2649 12.2431 26.5886 12.5835 26.9917L13.8668 28.45C14.0695 28.6937 14.3238 28.8895 14.6112 29.0231C14.8987 29.1568 15.2123 29.225 15.5293 29.2229V29.2229C15.8476 29.2203 16.1618 29.1501 16.4509 29.0168C16.7401 28.8835 16.9976 28.6903 17.2064 28.45L18.4751 26.9917C18.8428 26.5449 19.3138 26.1945 19.8475 25.9709C20.3811 25.7472 20.9613 25.6571 21.5376 25.7083L23.5064 25.8542C23.8217 25.8832 24.1396 25.8421 24.4371 25.7337C24.7347 25.6252 25.0045 25.4522 25.2272 25.2271C25.451 25.0004 25.623 24.7278 25.7313 24.4282C25.8395 24.1286 25.8815 23.8091 25.8543 23.4917L25.7084 21.4938C25.6551 20.9178 25.7412 20.3375 25.9595 19.802C26.1778 19.2664 26.5219 18.7912 26.9626 18.4167L28.4209 17.1333C28.6663 16.9366 28.8653 16.6883 29.0039 16.406C29.1425 16.1237 29.2173 15.8144 29.223 15.5C29.2204 15.1816 29.1502 14.8675 29.0169 14.5783C28.8837 14.2892 28.6905 14.0317 28.4501 13.8229L26.9918 12.5542C26.5417 12.1828 26.1894 11.7069 25.9656 11.1679C25.7419 10.629 25.6536 10.0434 25.7084 9.4625L25.8543 7.49375C25.8823 7.17848 25.8407 6.8609 25.7323 6.56352C25.624 6.26613 25.4515 5.99622 25.2272 5.77292C25.0011 5.54827 24.7286 5.37575 24.4288 5.26743C24.1291 5.15912 23.8093 5.11761 23.4918 5.14583L21.4939 5.29167C20.9176 5.34877 20.3362 5.26437 19.7999 5.04582C19.2637 4.82726 18.7889 4.48114 18.4168 4.0375L17.1335 2.57917C16.9367 2.33386 16.6884 2.13484 16.4061 1.99623C16.1238 1.85761 15.8145 1.7828 15.5001 1.77708V1.77708C15.1818 1.77968 14.8676 1.84994 14.5785 1.9832C14.2893 2.11645 14.0318 2.30966 13.823 2.55L12.5543 4.00833C12.1821 4.45746 11.706 4.80908 11.1673 5.0327C10.6286 5.25632 10.0435 5.34521 9.46262 5.29167L7.49387 5.14583C7.1786 5.11779 6.86102 5.15942 6.56364 5.26779C6.26625 5.37616 5.99634 5.54861 5.77303 5.77292C5.54324 6.0045 5.36778 6.28426 5.25933 6.59195C5.15088 6.89964 5.11215 7.22759 5.14595 7.55208L5.29178 9.50625C5.34513 10.0822 5.25901 10.6624 5.04071 11.198C4.82241 11.7336 4.47835 12.2088 4.03762 12.5833L2.57928 13.8667C2.33398 14.0634 2.13496 14.3117 1.99635 14.594C1.85773 14.8763 1.78291 15.1856 1.7772 15.5C1.7798 15.8184 1.85006 16.1325 1.98332 16.4217C2.11657 16.7108 2.30977 16.9683 2.55012 17.1771L4.00845 18.4458C4.45856 18.8172 4.81087 19.2931 5.03458 19.8321C5.2583 20.371 5.3466 20.9566 5.29178 21.5375L5.14595 23.5062C5.1179 23.8215 5.15954 24.1391 5.26791 24.4365C5.37628 24.7339 5.54873 25.0038 5.77303 25.2271C5.99915 25.4517 6.27162 25.6242 6.57139 25.7326C6.87115 25.8409 7.19097 25.8824 7.50845 25.8542L9.50637 25.7083H9.81262Z" fill="black"/>
<path d="M15.5002 20.6042C14.1465 20.6042 12.8482 20.0664 11.891 19.1092C10.9338 18.152 10.396 16.8537 10.396 15.5C10.396 14.1463 10.9338 12.848 11.891 11.8908C12.8482 10.9336 14.1465 10.3958 15.5002 10.3958V10.3958C16.8539 10.3958 18.1521 10.9336 19.1094 11.8908C20.0666 12.848 20.6043 14.1463 20.6043 15.5C20.6043 16.8537 20.0666 18.152 19.1094 19.1092C18.1521 20.0664 16.8539 20.6042 15.5002 20.6042ZM15.5002 11.8542C14.5332 11.8542 13.6059 12.2383 12.9222 12.922C12.2384 13.6057 11.8543 14.5331 11.8543 15.5C11.8543 16.4669 12.2384 17.3943 12.9222 18.078C13.6059 18.7617 14.5332 19.1458 15.5002 19.1458C16.4671 19.1458 17.3944 18.7617 18.0782 18.078C18.7619 17.3943 19.146 16.4669 19.146 15.5C19.146 14.5331 18.7619 13.6057 18.0782 12.922C17.3944 12.2383 16.4671 11.8542 15.5002 11.8542V11.8542Z" fill="black"/>
</svg>
