<svg width="24" height="24" viewBox="0 0 24 24" fill="none" xmlns="http://www.w3.org/2000/svg">
<path d="M15 20.22H6.08004C5.24104 20.2174 4.43731 19.8822 3.84498 19.288C3.25265 18.6938 2.92004 17.889 2.92004 17.05V8.16C2.92268 7.32273 3.25646 6.5205 3.8485 5.92846C4.44054 5.33641 5.24277 5.00264 6.08004 5H8.75004C8.88265 5 9.00983 5.05268 9.1036 5.14645C9.19737 5.24021 9.25004 5.36739 9.25004 5.5C9.25004 5.63261 9.19737 5.75979 9.1036 5.85355C9.00983 5.94732 8.88265 6 8.75004 6H6.08004C5.50799 6.00263 4.96011 6.23105 4.5556 6.63556C4.15109 7.04007 3.92267 7.58794 3.92004 8.16V17.05C3.92004 17.6238 4.14729 18.1742 4.55208 18.5809C4.95688 18.9876 5.50626 19.2174 6.08004 19.22H15C15.285 19.22 15.5672 19.1639 15.8305 19.0548C16.0937 18.9458 16.333 18.7859 16.5345 18.5844C16.736 18.3829 16.8958 18.1437 17.0049 17.8804C17.1139 17.6171 17.17 17.335 17.17 17.05V15.27C17.17 15.1374 17.2227 15.0102 17.3165 14.9164C17.4103 14.8227 17.5374 14.77 17.67 14.77C17.8027 14.77 17.9298 14.8227 18.0236 14.9164C18.1174 15.0102 18.17 15.1374 18.17 15.27V17.05C18.17 17.8907 17.8361 18.697 17.2416 19.2915C16.6471 19.886 15.8408 20.22 15 20.22Z" fill="black"/>
<path d="M17.6301 8.52C17.5009 8.5201 17.3766 8.47018 17.2834 8.38069C17.1902 8.29121 17.1353 8.16911 17.1301 8.04C17.1102 7.66947 16.9929 7.31074 16.7901 7C16.6268 6.74186 16.4082 6.52325 16.1501 6.36C15.8498 6.16604 15.5063 6.04924 15.1501 6.02C15.0844 6.01743 15.0199 6.00193 14.9602 5.97439C14.9005 5.94685 14.8469 5.90782 14.8023 5.85952C14.7577 5.81123 14.7231 5.75461 14.7004 5.69292C14.6777 5.63123 14.6674 5.56567 14.6701 5.5C14.6673 5.37336 14.7136 5.25055 14.7994 5.15733C14.8851 5.06411 15.0037 5.00772 15.1301 5C15.6853 5.02474 16.2239 5.19736 16.6901 5.5C17.0698 5.73909 17.391 6.06031 17.6301 6.44C17.9327 6.90618 18.1054 7.44475 18.1301 8C18.1328 8.06567 18.1225 8.13123 18.0998 8.19292C18.0771 8.25461 18.0425 8.31123 17.9979 8.35952C17.9533 8.40782 17.8997 8.44685 17.84 8.47439C17.7803 8.50193 17.7158 8.51743 17.6501 8.52H17.6301Z" fill="black"/>
<path d="M13 13.11H10.53C10.3974 13.11 10.2703 13.0573 10.1765 12.9636C10.0827 12.8698 10.03 12.7426 10.03 12.61V10.09C10.0293 9.95954 10.0795 9.83394 10.17 9.74L15.17 4.74C15.2635 4.64839 15.3892 4.59708 15.52 4.59708C15.6509 4.59708 15.7766 4.64839 15.87 4.74L16.74 5.61C16.8317 5.70347 16.883 5.82913 16.883 5.96C16.883 6.09088 16.8317 6.21654 16.74 6.31C16.6936 6.35687 16.6383 6.39407 16.5773 6.41945C16.5164 6.44483 16.451 6.4579 16.385 6.4579C16.319 6.4579 16.2537 6.44483 16.1927 6.41945C16.1318 6.39407 16.0765 6.35687 16.03 6.31L15.52 5.81L11 10.3V12.11H12.81L17.34 7.57L16.83 7.06C16.7384 6.96654 16.6871 6.84088 16.6871 6.71C16.6871 6.57913 16.7384 6.45347 16.83 6.36C16.8765 6.31314 16.9318 6.27594 16.9928 6.25056C17.0537 6.22517 17.119 6.21211 17.185 6.21211C17.251 6.21211 17.3164 6.22517 17.3773 6.25056C17.4383 6.27594 17.4936 6.31314 17.54 6.36L18.4 7.22C18.4469 7.26649 18.4841 7.32179 18.5095 7.38272C18.5349 7.44365 18.5479 7.509 18.5479 7.575C18.5479 7.64101 18.5349 7.70636 18.5095 7.76729C18.4841 7.82822 18.4469 7.88352 18.4 7.93L13.4 12.93C13.3501 12.9868 13.2885 13.0323 13.2195 13.0633C13.1505 13.0944 13.0757 13.1103 13 13.11Z" fill="black"/>
<path d="M18.08 8.06999C17.9465 8.07128 17.8176 8.02115 17.72 7.92999L16.86 7.05999C16.7684 6.96653 16.7171 6.84087 16.7171 6.70999C16.7171 6.57912 16.7684 6.45346 16.86 6.35999C16.9065 6.31313 16.9618 6.27593 17.0227 6.25055C17.0836 6.22516 17.149 6.21209 17.215 6.21209C17.281 6.21209 17.3463 6.22516 17.4073 6.25055C17.4682 6.27593 17.5235 6.31313 17.57 6.35999L18.08 6.86999L19.88 5.05999L18.08 3.25999L16.27 5.05999L16.78 5.56999C16.8716 5.66346 16.9229 5.78912 16.9229 5.91999C16.9229 6.05087 16.8716 6.17653 16.78 6.26999C16.7335 6.31686 16.6782 6.35405 16.6173 6.37944C16.5563 6.40482 16.491 6.41789 16.425 6.41789C16.359 6.41789 16.2936 6.40482 16.2327 6.37944C16.1718 6.35405 16.1165 6.31686 16.07 6.26999L15.21 5.40999C15.162 5.36535 15.1238 5.31114 15.098 5.25086C15.0721 5.19059 15.0592 5.12557 15.06 5.05999C15.059 4.99291 15.0718 4.92635 15.0976 4.86443C15.1234 4.8025 15.1617 4.74653 15.21 4.69999L17.72 2.19999C17.7665 2.15313 17.8218 2.11593 17.8827 2.09055C17.9436 2.06516 18.009 2.05209 18.075 2.05209C18.141 2.05209 18.2063 2.06516 18.2673 2.09055C18.3282 2.11593 18.3835 2.15313 18.43 2.19999L20.94 4.69999C21.0322 4.79514 21.0838 4.92247 21.0838 5.05499C21.0838 5.18752 21.0322 5.31484 20.94 5.40999L18.43 7.92999C18.3361 8.02054 18.2105 8.07078 18.08 8.06999Z" fill="black"/>
</svg>
