<svg width="24" height="24" viewBox="0 0 24 24" fill="none" xmlns="http://www.w3.org/2000/svg">
<path d="M16.4 19.37H6.40002C5.47177 19.37 4.58153 19.0012 3.92515 18.3449C3.26877 17.6885 2.90002 16.7983 2.90002 15.87V13.37C2.90002 13.2374 2.9527 13.1102 3.04647 13.0164C3.14024 12.9227 3.26742 12.87 3.40002 12.87C3.53263 12.87 3.65981 12.9227 3.75358 13.0164C3.84735 13.1102 3.90002 13.2374 3.90002 13.37V15.87C3.90002 16.533 4.16342 17.1689 4.63226 17.6378C5.1011 18.1066 5.73698 18.37 6.40002 18.37H16.4C17.0631 18.37 17.699 18.1066 18.1678 17.6378C18.6366 17.1689 18.9 16.533 18.9 15.87V13.37C18.9 13.2374 18.9527 13.1102 19.0465 13.0164C19.1402 12.9227 19.2674 12.87 19.4 12.87C19.5326 12.87 19.6598 12.9227 19.7536 13.0164C19.8473 13.1102 19.9 13.2374 19.9 13.37V15.87C19.9 16.7983 19.5313 17.6885 18.8749 18.3449C18.2185 19.0012 17.3283 19.37 16.4 19.37Z" fill="black"/>
<path d="M11.4 14.63C11.2674 14.63 11.1402 14.5773 11.0465 14.4836C10.9527 14.3898 10.9 14.2626 10.9 14.13V5.13C10.9 4.9974 10.9527 4.87022 11.0465 4.77645C11.1402 4.68268 11.2674 4.63 11.4 4.63C11.5326 4.63 11.6598 4.68268 11.7536 4.77645C11.8473 4.87022 11.9 4.9974 11.9 5.13V14.13C11.9 14.2626 11.8473 14.3898 11.7536 14.4836C11.6598 14.5773 11.5326 14.63 11.4 14.63Z" fill="black"/>
<path d="M11.4 15.87C11.2649 15.8697 11.1354 15.8157 11.04 15.72L6.80003 11.48C6.70842 11.3865 6.6571 11.2609 6.6571 11.13C6.6571 10.9991 6.70842 10.8735 6.80003 10.78C6.84651 10.7331 6.90182 10.6959 6.96274 10.6706C7.02367 10.6452 7.08903 10.6321 7.15503 10.6321C7.22104 10.6321 7.28639 10.6452 7.34732 10.6706C7.40825 10.6959 7.46355 10.7331 7.51003 10.78L11.4 14.66L15.29 10.78C15.336 10.734 15.3906 10.6976 15.4506 10.6727C15.5107 10.6478 15.575 10.635 15.64 10.635C15.705 10.635 15.7694 10.6478 15.8295 10.6727C15.8895 10.6976 15.9441 10.734 15.99 10.78C16.036 10.826 16.0725 10.8805 16.0973 10.9406C16.1222 11.0006 16.135 11.065 16.135 11.13C16.135 11.195 16.1222 11.2594 16.0973 11.3194C16.0725 11.3795 16.036 11.434 15.99 11.48L11.75 15.72C11.7047 15.7671 11.6503 15.8046 11.5902 15.8304C11.5301 15.8562 11.4654 15.8696 11.4 15.87Z" fill="black"/>
</svg>
