<svg width="19" height="17" viewBox="0 0 19 17" fill="none" xmlns="http://www.w3.org/2000/svg">
<path d="M7.71875 12.0417C6.5829 12.0417 5.47258 11.7401 4.52837 11.1752C3.58416 10.6103 2.84852 9.80742 2.41457 8.86822C1.98062 7.92901 1.86789 6.89573 2.09064 5.89917C2.31339 4.90261 2.8616 3.9876 3.66588 3.26996C4.47016 2.55233 5.49434 2.06435 6.60875 1.8678C7.72316 1.67125 8.8777 1.77497 9.92619 2.16583C10.9747 2.55669 11.87 3.21712 12.4987 4.06349C13.1275 4.90987 13.4615 5.90414 13.4583 6.92043C13.4521 8.27939 12.8448 9.58089 11.7694 10.5405C10.6939 11.5001 9.23761 12.0398 7.71875 12.0417ZM7.71875 2.47918C6.74082 2.47918 5.78482 2.73847 4.97149 3.2243C4.15815 3.71014 3.52396 4.40072 3.14901 5.20884C2.77405 6.01695 2.67514 6.90637 2.86478 7.76475C3.05442 8.62313 3.52409 9.41198 4.21449 10.0317C4.90488 10.6514 5.78503 11.0741 6.74379 11.2465C7.70255 11.419 8.69691 11.3333 9.60129 11.0004C10.5057 10.6675 11.2795 10.1023 11.8251 9.37611C12.3707 8.64995 12.6635 7.79541 12.6667 6.92043C12.6667 5.74629 12.1454 4.62025 11.2175 3.79001C10.2895 2.95977 9.03102 2.49335 7.71875 2.49335V2.47918Z" fill="black"/>
<path d="M16.625 15.2434C16.5731 15.2439 16.5216 15.2348 16.4739 15.2165C16.4262 15.1982 16.3833 15.1711 16.3479 15.1371L11.2179 10.5471C11.1444 10.4814 11.1031 10.3922 11.1031 10.2992C11.1031 10.2062 11.1444 10.117 11.2179 10.0513C11.2914 9.98552 11.3911 9.94858 11.495 9.94858C11.5989 9.94858 11.6986 9.98552 11.7721 10.0513L16.9021 14.6413C16.94 14.6731 16.9701 14.7115 16.9908 14.7541C17.0114 14.7968 17.022 14.8427 17.022 14.8892C17.022 14.9356 17.0114 14.9816 16.9908 15.0243C16.9701 15.0669 16.94 15.1053 16.9021 15.1371C16.8667 15.1711 16.8238 15.1982 16.7761 15.2165C16.7284 15.2348 16.6769 15.2439 16.625 15.2434Z" fill="black"/>
</svg>
